<svg width="99" height="95" viewBox="0 0 99 95" fill="none" xmlns="http://www.w3.org/2000/svg">
<path d="M96.642 47.4956L87.1433 53.6858V45.7954L92.3522 42.4076C92.7209 42.1586 92.9843 41.765 93.0863 41.3106C93.1883 40.8563 93.1207 40.3772 92.8981 39.9756L86.9526 29.4856C86.7264 29.0861 86.3615 28.7993 85.9382 28.6882C85.5149 28.5771 85.0678 28.6508 84.6951 28.8931L72.5444 36.8011H56.3604L78.2284 22.5511C78.596 22.3034 78.8592 21.9118 78.9621 21.4594C79.0649 21.007 78.9993 20.5294 78.7792 20.128L75.3642 14.0982C75.1377 13.699 74.7727 13.4125 74.3494 13.3018C73.9261 13.191 73.4792 13.2649 73.1067 13.5074L37.3598 36.8011H14.8884L70.1783 0.772398C71.2952 0.042621 72.6366 -0.181554 73.9075 0.14916C75.1784 0.479875 76.2749 1.33841 76.9558 2.536L98.2977 40.2172C98.9663 41.4194 99.1676 42.8552 98.8582 44.2152C98.5487 45.5751 97.7534 46.7501 96.6436 47.4867L96.642 47.4956ZM83.8549 47.0688V89.7092C83.8549 91.1124 83.3352 92.4581 82.4102 93.4504C81.4851 94.4426 80.2305 95 78.9223 95H4.93264C3.62442 95 2.36979 94.4426 1.44474 93.4504C0.519688 92.4581 0 91.1124 0 89.7092V45.6191C0 44.2159 0.519688 42.8701 1.44474 41.8779C2.36979 40.8857 3.62442 40.3283 4.93264 40.3283H78.9223C80.0232 40.3439 81.0884 40.7489 81.9527 41.4804C82.817 42.212 83.4319 43.2291 83.702 44.374C83.8531 45.2625 83.9044 46.1672 83.8549 47.0688ZM41.1054 77.364C41.4329 77.377 41.7565 77.2847 42.0348 77.099C42.3131 76.9133 42.5333 76.6426 42.6671 76.3217C42.8009 76.0008 42.8423 75.6443 42.7859 75.298C42.7295 74.9518 42.5779 74.6314 42.3505 74.3782C42.1232 74.125 41.8305 73.9504 41.51 73.8769C41.1895 73.8034 40.8558 73.8343 40.5518 73.9657C40.2478 74.097 39.9874 74.3228 39.8039 74.6141C39.6204 74.9054 39.5222 75.2488 39.522 75.6004C39.5217 76.057 39.6865 76.496 39.9818 76.8249C40.2772 77.1538 40.6799 77.3471 41.1054 77.364ZM36.1727 77.364C36.5002 77.377 36.8239 77.2847 37.1022 77.099C37.3804 76.9133 37.6006 76.6426 37.7344 76.3217C37.8683 76.0008 37.9096 75.6443 37.8532 75.298C37.7968 74.9518 37.6452 74.6314 37.4179 74.3782C37.1905 74.125 36.8979 73.9504 36.5774 73.8769C36.2569 73.8034 35.9232 73.8343 35.6192 73.9657C35.3152 74.097 35.0547 74.3228 34.8712 74.6141C34.6877 74.9054 34.5896 75.2488 34.5893 75.6004C34.589 76.057 34.7539 76.496 35.0492 76.8249C35.3445 77.1538 35.7473 77.3471 36.1727 77.364ZM24.6632 77.364C24.9907 77.377 25.3144 77.2847 25.5927 77.099C25.8709 76.9133 26.0911 76.6426 26.2249 76.3217C26.3588 76.0008 26.4001 75.6443 26.3437 75.298C26.2873 74.9518 26.1357 74.6314 25.9084 74.3782C25.681 74.125 25.3883 73.9504 25.0679 73.8769C24.7474 73.8034 24.4137 73.8343 24.1097 73.9657C23.8057 74.097 23.5452 74.3228 23.3617 74.6141C23.1782 74.9054 23.0801 75.2488 23.0798 75.6004C23.0795 76.057 23.2444 76.496 23.5397 76.8249C23.835 77.1538 24.2378 77.3471 24.6632 77.364ZM18.0864 75.6004C18.0742 75.9517 18.1603 76.2988 18.3334 76.5973C18.5065 76.8958 18.7589 77.1319 19.0581 77.2755C19.3572 77.419 19.6896 77.4634 20.0124 77.4029C20.3353 77.3424 20.6339 77.1798 20.87 76.9359C21.106 76.6921 21.2688 76.3781 21.3373 76.0344C21.4058 75.6906 21.377 75.3327 21.2546 75.0067C21.1321 74.6806 20.9216 74.4012 20.6501 74.2044C20.3785 74.0075 20.0583 73.9022 19.7306 73.902C19.3048 73.9017 18.8956 74.0785 18.5889 74.3953C18.2823 74.712 18.1021 75.144 18.0864 75.6004ZM8.22107 66.7823H18.0864C18.5224 66.7823 18.9406 66.5965 19.249 66.2658C19.5573 65.9351 19.7306 65.4865 19.7306 65.0187V54.4371C19.7306 53.9694 19.5573 53.5208 19.249 53.19C18.9406 52.8593 18.5224 52.6735 18.0864 52.6735H8.22107C7.78981 52.6897 7.38034 52.8808 7.07521 53.208C6.77007 53.5353 6.59199 53.9745 6.57686 54.4371V65.0187C6.58888 65.4824 6.76596 65.9235 7.07175 66.2515C7.37753 66.5795 7.7888 66.7694 8.22107 66.7823ZM13.1537 75.6004C13.1416 75.9517 13.2276 76.2988 13.4008 76.5973C13.5739 76.8958 13.8262 77.1319 14.1254 77.2755C14.4246 77.419 14.7569 77.4634 15.0798 77.4029C15.4026 77.3424 15.7012 77.1798 15.9373 76.9359C16.1734 76.6921 16.3361 76.3781 16.4047 76.0344C16.4732 75.6906 16.4444 75.3327 16.3219 75.0067C16.1995 74.6806 15.989 74.4012 15.7174 74.2044C15.4459 74.0075 15.1257 73.9022 14.7979 73.902C14.3722 73.9017 13.9629 74.0785 13.6563 74.3953C13.3496 74.712 13.1695 75.144 13.1537 75.6004ZM73.9896 82.6548C73.9896 82.187 73.8164 81.7385 73.5081 81.4077C73.1997 81.077 72.7815 80.8912 72.3454 80.8912H11.5095C11.0734 80.8912 10.6552 81.077 10.3469 81.4077C10.0385 81.7385 9.86528 82.187 9.86528 82.6548C9.86528 83.1225 10.0385 83.5711 10.3469 83.9018C10.6552 84.2326 11.0734 84.4184 11.5095 84.4184H72.3454C72.7815 84.4184 73.1997 84.2326 73.5081 83.9018C73.8164 83.5711 73.9896 83.1225 73.9896 82.6548ZM47.6822 75.6004C47.6943 75.2491 47.6083 74.9019 47.4352 74.6034C47.262 74.3049 47.0097 74.0688 46.7105 73.9252C46.4113 73.7817 46.079 73.7373 45.7561 73.7978C45.4333 73.8583 45.1347 74.0209 44.8986 74.2648C44.6625 74.5086 44.4998 74.8226 44.4313 75.1663C44.3627 75.5101 44.3915 75.868 44.514 76.1941C44.6365 76.5201 44.847 76.7995 45.1185 76.9963C45.3901 77.1932 45.7103 77.2985 46.038 77.2987C46.4637 77.299 46.873 77.1222 47.1796 76.8054C47.4863 76.4887 47.6665 76.0567 47.6822 75.6004ZM52.6149 75.6004C52.627 75.2491 52.541 74.9019 52.3678 74.6034C52.1947 74.3049 51.9423 74.0688 51.6431 73.9252C51.344 73.7817 51.0116 73.7373 50.6888 73.7978C50.3659 73.8583 50.0673 74.0209 49.8312 74.2648C49.5952 74.5086 49.4324 74.8226 49.3639 75.1663C49.2954 75.5101 49.3242 75.868 49.4466 76.1941C49.5691 76.5201 49.7796 76.7995 50.0512 76.9963C50.3227 77.1932 50.6429 77.2985 50.9706 77.2987C51.3964 77.299 51.8056 77.1222 52.1123 76.8054C52.4189 76.4887 52.5991 76.0567 52.6149 75.6004ZM57.5475 75.6004C57.5596 75.2491 57.4736 74.9019 57.3005 74.6034C57.1273 74.3049 56.875 74.0688 56.5758 73.9252C56.2766 73.7817 55.9443 73.7373 55.6214 73.7978C55.2986 73.8583 55 74.0209 54.7639 74.2648C54.5278 74.5086 54.3651 74.8226 54.2965 75.1663C54.228 75.5101 54.2568 75.868 54.3793 76.1941C54.5017 76.5201 54.7122 76.7995 54.9838 76.9963C55.2553 77.1932 55.5755 77.2985 55.9033 77.2987C56.329 77.299 56.7383 77.1222 57.0449 76.8054C57.3516 76.4887 57.5317 76.0567 57.5475 75.6004ZM62.4801 75.6004C62.4923 75.2491 62.4062 74.9019 62.2331 74.6034C62.06 74.3049 61.8076 74.0688 61.5084 73.9252C61.2093 73.7817 60.8769 73.7373 60.5541 73.7978C60.2312 73.8583 59.9326 74.0209 59.6965 74.2648C59.4605 74.5086 59.2977 74.8226 59.2292 75.1663C59.1606 75.5101 59.1895 75.868 59.3119 76.1941C59.4344 76.5201 59.6449 76.7995 59.9164 76.9963C60.188 77.1932 60.5082 77.2985 60.8359 77.2987C61.2617 77.299 61.6709 77.1222 61.9776 76.8054C62.2842 76.4887 62.4644 76.0567 62.4801 75.6004ZM67.4128 75.6004C67.4249 75.2491 67.3389 74.9019 67.1657 74.6034C66.9926 74.3049 66.7402 74.0688 66.4411 73.9252C66.1419 73.7817 65.8096 73.7373 65.4867 73.7978C65.1639 73.8583 64.8652 74.0209 64.6292 74.2648C64.3931 74.5086 64.2304 74.8226 64.1618 75.1663C64.0933 75.5101 64.1221 75.868 64.2446 76.1941C64.367 76.5201 64.5775 76.7995 64.8491 76.9963C65.1206 77.1932 65.4408 77.2985 65.7686 77.2987C66.1943 77.299 66.6036 77.1222 66.9102 76.8054C67.2169 76.4887 67.397 76.0567 67.4128 75.6004ZM72.3454 75.6004C72.3576 75.2491 72.2715 74.9019 72.0984 74.6034C71.9252 74.3049 71.6729 74.0688 71.3737 73.9252C71.0745 73.7817 70.7422 73.7373 70.4194 73.7978C70.0965 73.8583 69.7979 74.0209 69.5618 74.2648C69.3257 74.5086 69.163 74.8226 69.0945 75.1663C69.0259 75.5101 69.0547 75.868 69.1772 76.1941C69.2997 76.5201 69.5102 76.7995 69.7817 76.9963C70.0533 77.1932 70.3735 77.2985 70.7012 77.2987C71.1269 77.299 71.5362 77.1222 71.8428 76.8054C72.1495 76.4887 72.3297 76.0567 72.3454 75.6004ZM72.3454 54.4371H42.7496C42.3135 54.4371 41.8953 54.6229 41.5869 54.9537C41.2786 55.2844 41.1054 55.733 41.1054 56.2007C41.1054 56.6684 41.2786 57.117 41.5869 57.4478C41.8953 57.7785 42.3135 57.9643 42.7496 57.9643H72.3454C72.7815 57.9643 73.1997 57.7785 73.5081 57.4478C73.8164 57.117 73.9896 56.6684 73.9896 56.2007C73.9896 55.733 73.8164 55.2844 73.5081 54.9537C73.1997 54.6229 72.7815 54.4371 72.3454 54.4371ZM72.3454 49.1463H50.9706C50.5346 49.1463 50.1164 49.3321 49.808 49.6628C49.4997 49.9936 49.3264 50.4422 49.3264 50.9099C49.3264 51.3776 49.4997 51.8262 49.808 52.157C50.1164 52.4877 50.5346 52.6735 50.9706 52.6735H72.3454C72.7815 52.6735 73.1997 52.4877 73.5081 52.157C73.8164 51.8262 73.9896 51.3776 73.9896 50.9099C73.9896 50.4422 73.8164 49.9936 73.5081 49.6628C73.1997 49.3321 72.7815 49.1463 72.3454 49.1463ZM13.0929 63.2551H16.4421V61.4915H13.9939C13.7899 62.1304 13.4851 62.7269 13.0929 63.2551ZM9.86528 61.8019C10.1579 61.5857 10.4062 61.3075 10.5948 60.9845C10.7834 60.6615 10.9084 60.3005 10.962 59.9237C10.8494 59.1141 10.4581 58.3792 9.86528 57.8638V61.8019ZM13.8739 57.9643H16.4421V56.2007H12.8939C13.3003 56.7345 13.6326 57.3285 13.8805 57.9643H13.8739Z" fill="#4F4E50"/>
</svg>
